{
  "source": "C:\\Users\\Peter\\Desktop\\stuff\\MIUN\\quantitative_research\\video_compression\\videos\\BVI-HD\\RockWater_1920x1080_30fps.mp4",
  "output": "C:\\Users\\Peter\\Desktop\\stuff\\MIUN\\quantitative_research\\video_compression\\compressed_videos\\BVI-HD\\vp9\\3\\RockWater_1920x1080_30fps_vp9.webm",
  "codec": "vp9",
  "ok": "Input #0, mov,mp4,m4a,3gp,3g2,mj2, from 'C:\\Users\\Peter\\Desktop\\stuff\\MIUN\\quantitative_research\\video_compression\\videos\\BVI-HD\\RockWater_1920x1080_30fps.mp4':\n  Metadata:\n    major_brand     : isom\n    minor_version   : 512\n    compatible_brands: isomiso2avc1mp41\n    encoder         : Lavf54.28.101\n  Duration: 00:00:05.00, start: 0.000000, bitrate: 245943 kb/s\n  Stream #0:0[0x1](und): Video: h264 (High 4:4:4 Predictive) (avc1 / 0x31637661), yuv420p(progressive), 1920x1080, 245940 kb/s, 30 fps, 30 tbr, 30 tbn (default)\n    Metadata:\n      handler_name    : VideoHandler\n      vendor_id       : [0][0][0][0]\n[out#0/webm @ 000001c638690b00] Codec AVOption b:a (set bitrate (in bits/s)) has not been used for any stream. The most likely reason is either wrong type (e.g. a video option with no video streams) or that it is a private option of some decoder which was not actually used for any stream.\nStream mapping:\n  Stream #0:0 -> #0:0 (h264 (native) -> vp9 (libvpx-vp9))\nPress [q] to stop, [?] for help\n[libvpx-vp9 @ 000001c638ff4600] v1.15.2-100-g40561f514\nOutput #0, webm, to 'C:\\Users\\Peter\\Desktop\\stuff\\MIUN\\quantitative_research\\video_compression\\compressed_videos\\BVI-HD\\vp9\\3\\RockWater_1920x1080_30fps_vp9.webm':\n  Metadata:\n    major_brand     : isom\n    minor_version   : 512\n    compatible_brands: isomiso2avc1mp41\n    encoder         : Lavf62.3.100\n  Stream #0:0(und): Video: vp9, yuv420p(tv, progressive), 1920x1080, q=2-31, 3000 kb/s, 30 fps, 1k tbn (default)\n    Metadata:\n      encoder         : Lavc62.11.100 libvpx-vp9\n      handler_name    : VideoHandler\n      vendor_id       : [0][0][0][0]\n    Side data:\n      cpb: bitrate max/min/avg: 0/0/0 buffer size: 3000000 vbv_delay: N/A\nframe=    0 fps=0.0 q=0.0 size=       0KiB time=N/A bitrate=N/A speed=N/A elapsed=0:00:00.53    \nframe=    5 fps=4.6 q=59.0 size=       1KiB time=00:00:00.16 bitrate=  30.4kbits/s speed=0.152x elapsed=0:00:01.09    \nframe=   10 fps=6.2 q=57.0 size=       1KiB time=00:00:00.33 bitrate=  15.2kbits/s speed=0.207x elapsed=0:00:01.60    \nframe=   14 fps=6.6 q=59.0 size=       1KiB time=00:00:00.46 bitrate=  10.9kbits/s speed=0.22x elapsed=0:00:02.12    \nframe=   19 fps=7.2 q=57.0 size=       1KiB time=00:00:00.63 bitrate=   8.0kbits/s speed=0.24x elapsed=0:00:02.64    \nframe=   23 fps=7.3 q=60.0 size=       1KiB time=00:00:00.76 bitrate=   6.6kbits/s speed=0.243x elapsed=0:00:03.16    \nframe=   28 fps=7.6 q=58.0 size=       1KiB time=00:00:00.93 bitrate=   5.4kbits/s speed=0.254x elapsed=0:00:03.67    \nframe=   32 fps=7.6 q=56.0 size=       1KiB time=00:00:01.06 bitrate=   4.8kbits/s speed=0.254x elapsed=0:00:04.19    \nframe=   37 fps=7.8 q=55.0 size=       1KiB time=00:00:01.23 bitrate=   4.1kbits/s speed=0.262x elapsed=0:00:04.71    \nframe=   42 fps=8.0 q=53.0 size=       1KiB time=00:00:01.40 bitrate=   3.6kbits/s speed=0.268x elapsed=0:00:05.21    \nframe=   46 fps=8.0 q=53.0 size=       1KiB time=00:00:01.53 bitrate=   3.3kbits/s speed=0.267x elapsed=0:00:05.74    \nframe=   51 fps=8.2 q=53.0 size=       1KiB time=00:00:01.70 bitrate=   3.0kbits/s speed=0.272x elapsed=0:00:06.25    \nframe=   56 fps=8.3 q=57.0 size=       1KiB time=00:00:01.86 bitrate=   2.7kbits/s speed=0.275x elapsed=0:00:06.77    \nframe=   61 fps=8.4 q=57.0 size=       1KiB time=00:00:02.03 bitrate=   2.5kbits/s speed=0.279x elapsed=0:00:07.28    \nframe=   66 fps=8.5 q=52.0 size=       1KiB time=00:00:02.20 bitrate=   2.3kbits/s speed=0.282x elapsed=0:00:07.80    \nframe=   70 fps=8.4 q=51.0 size=       1KiB time=00:00:02.33 bitrate=   2.2kbits/s speed=0.28x elapsed=0:00:08.31    \nframe=   75 fps=8.5 q=51.0 size=       1KiB time=00:00:02.50 bitrate=   2.0kbits/s speed=0.283x elapsed=0:00:08.83    \nframe=   79 fps=8.4 q=36.0 size=       1KiB time=00:00:02.63 bitrate=   1.9kbits/s speed=0.282x elapsed=0:00:09.35    \nframe=   84 fps=8.5 q=52.0 size=       1KiB time=00:00:02.80 bitrate=   1.8kbits/s speed=0.284x elapsed=0:00:09.87    \nframe=   88 fps=8.5 q=51.0 size=       1KiB time=00:00:02.93 bitrate=   1.7kbits/s speed=0.282x elapsed=0:00:10.39    \nframe=   93 fps=8.5 q=56.0 size=       1KiB time=00:00:03.10 bitrate=   1.6kbits/s speed=0.284x elapsed=0:00:10.90    \nframe=   98 fps=8.6 q=58.0 size=       1KiB time=00:00:03.26 bitrate=   1.6kbits/s speed=0.286x elapsed=0:00:11.41    \nframe=  102 fps=8.5 q=53.0 size=       1KiB time=00:00:03.40 bitrate=   1.5kbits/s speed=0.285x elapsed=0:00:11.94    \nframe=  107 fps=8.6 q=54.0 size=       1KiB time=00:00:03.56 bitrate=   1.4kbits/s speed=0.286x elapsed=0:00:12.46    \nframe=  110 fps=8.5 q=55.0 size=       1KiB time=00:00:03.66 bitrate=   1.4kbits/s speed=0.283x elapsed=0:00:12.97    \nframe=  114 fps=8.5 q=55.0 size=       1KiB time=00:00:03.80 bitrate=   1.3kbits/s speed=0.282x elapsed=0:00:13.48    \nframe=  119 fps=8.5 q=55.0 size=       1KiB time=00:00:03.96 bitrate=   1.3kbits/s speed=0.283x elapsed=0:00:14.00    \nframe=  123 fps=8.5 q=55.0 size=       1KiB time=00:00:04.10 bitrate=   1.2kbits/s speed=0.282x elapsed=0:00:14.51    \nframe=  126 fps=8.4 q=55.0 size=       1KiB time=00:00:04.20 bitrate=   1.2kbits/s speed=0.279x elapsed=0:00:15.03    \nframe=  126 fps=8.1 q=55.0 size=       1KiB time=00:00:04.20 bitrate=   1.2kbits/s speed=0.27x elapsed=0:00:15.55    \nframe=  126 fps=7.8 q=55.0 size=       1KiB time=00:00:04.20 bitrate=   1.2kbits/s speed=0.261x elapsed=0:00:16.07    \nframe=  126 fps=7.6 q=55.0 size=       1KiB time=00:00:04.20 bitrate=   1.2kbits/s speed=0.253x elapsed=0:00:16.59    \nframe=  126 fps=7.4 q=55.0 size=       1KiB time=00:00:04.20 bitrate=   1.2kbits/s speed=0.245x elapsed=0:00:17.11    \n[out#0/webm @ 000001c638690b00] video:1855KiB audio:0KiB subtitle:0KiB other streams:0KiB global headers:0KiB muxing overhead: 0.092933%\nframe=  150 fps=8.6 q=54.0 Lsize=    1856KiB time=00:00:05.00 bitrate=3041.6kbits/s speed=0.285x elapsed=0:00:17.52    \n",
  "seconds": 17.681174516677856,
  "probe_out": {}
}